<?xml version="1.0" encoding="UTF-8" standalone="no"?>
<svg width="193px" height="50px" viewBox="0 0 193 50" version="1.1" xmlns="http://www.w3.org/2000/svg" xmlns:xlink="http://www.w3.org/1999/xlink" xmlns:sketch="http://www.bohemiancoding.com/sketch/ns">
    <title>Artboard 1</title>
    <description>Logo Madrid Abierto</description>
    <defs></defs>
    <g id="Page-1" stroke="none" stroke-width="1" fill="none" fill-rule="evenodd" sketch:type="MSPage">
        <g id="Artboard-1" sketch:type="MSArtboardGroup" fill="#000000">
            <path d="M192.999878,37.8707434 C192.999878,33.7484603 193.032388,30.765691 190.612101,28.353617 C188.929927,26.6786506 186.877511,25.7403051 184.153188,25.7403051 C181.429423,25.7403051 179.343938,26.6786506 177.664694,28.353617 C175.242593,30.765691 175.311103,33.7484603 175.311103,37.8707434 C175.311103,41.9924704 175.242593,44.9728763 177.664694,47.3866881 C179.343938,49.0622107 181.429423,50 184.153188,50 C186.877511,50 188.929927,49.0622107 190.612101,47.3866881 C193.032388,44.9728763 192.999878,41.9924704 192.999878,37.8707434 L192.999878,37.8707434 Z M188.324088,37.8707434 C188.324088,42.4613304 188.055981,43.5650454 187.148478,44.5704701 C186.473083,45.3446277 185.434352,45.8453242 184.153188,45.8453242 C182.876,45.8453242 181.800782,45.3446277 181.127689,44.5704701 C180.220116,43.5650454 179.983404,42.4613304 179.983404,37.8707434 C179.983404,33.2795309 180.220116,32.1717842 181.127689,31.1687228 C181.800782,30.3979714 182.876,29.8956065 184.153188,29.8956065 C185.434352,29.8956065 186.473083,30.3979714 187.148478,31.1687228 C188.055981,32.1717842 188.324088,33.2795309 188.324088,37.8707434 L188.324088,37.8707434 Z M160.535853,30.0950371 L166.790494,30.0950371 L166.790494,25.9403613 L149.607725,25.9403613 L149.607725,30.0950371 L155.862366,30.0950371 L155.862366,49.7999438 L160.535853,49.7999438 L160.535853,30.0950371 Z M136.184451,49.7999438 L141.597726,49.7999438 L136.250588,39.5115793 C138.572228,38.6738181 140.621714,36.5947076 140.621714,33.2477638 C140.621714,29.2579015 137.730862,25.9403613 132.854289,25.9403613 L123.470269,25.9403613 L123.470269,49.7999438 L128.146617,49.7999438 L128.146617,40.283443 L131.509847,40.283443 L136.184451,49.7999438 Z M135.948297,33.2477638 C135.948297,35.0880303 134.603227,36.3970149 132.551997,36.3970149 L128.146617,36.3970149 L128.146617,30.0950371 L132.551997,30.0950371 C134.603227,30.0950371 135.948297,31.4040217 135.948297,33.2477638 L135.948297,33.2477638 Z M140.85731,11.852876 C140.85731,8.2666016 141.126534,4.98548585 138.436465,2.30398249 C136.857544,0.729044151 134.603227,0.0230780567 132.113943,0.0230780567 L123.470269,0.0230780567 L123.470269,23.8832862 L132.113943,23.8832862 C134.603227,23.8832862 136.857544,23.1785018 138.436465,21.6047452 C141.126534,18.9249796 140.85731,15.4386638 140.85731,11.852876 L140.85731,11.852876 Z M136.184451,11.852876 C136.184451,15.4722382 136.049246,17.1789022 135.174812,18.2542562 C134.367631,19.2232566 133.291227,19.7274982 131.676377,19.7274982 L128.146617,19.7274982 L128.146617,4.17893557 L131.676377,4.17893557 C133.291227,4.17893557 134.367631,4.68136989 135.174812,5.65384583 C136.049246,6.72690596 136.184451,8.2341394 136.184451,11.852876 L136.184451,11.852876 Z M95.9181883,49.7999438 L111.689752,49.7999438 L111.689752,45.645268 L100.591606,45.645268 L100.591606,39.8463502 L110.042949,39.8463502 L110.042949,35.6899366 L100.591606,35.6899366 L100.591606,30.0950371 L111.689752,30.0950371 L111.689752,25.9403613 L95.9181883,25.9403613 L95.9181883,49.7999438 Z M107.016334,23.8832862 L111.689752,23.8832862 L111.689752,0.0231475689 L107.016334,0.0231475689 L107.016334,23.8832862 Z M96.9504312,23.8832862 L91.6032931,13.5949217 C93.9243745,12.7588983 95.9767909,10.6815256 95.9767909,7.33166226 C95.9767909,3.34298163 93.0830087,0.0230780567 88.2058773,0.0230780567 L78.8247179,0.0230780567 L78.8247179,23.8832862 L83.497647,23.8832862 L83.497647,14.364422 L86.8614361,14.364422 L91.5365978,23.8832862 L96.9504312,23.8832862 Z M91.2998851,7.33166226 C91.2998851,9.17199825 89.9559323,10.4802877 87.9035158,10.4802877 L83.497647,10.4802877 L83.497647,4.17893557 L87.9035158,4.17893557 C89.9559323,4.17893557 91.2998851,5.48618236 91.2998851,7.33166226 L91.2998851,7.33166226 Z M67.8501956,11.852876 C67.8501956,8.2666016 68.1183025,4.98548585 65.4293503,2.30398249 C63.8481266,0.729044151 61.5938103,0.0230780567 59.1056417,0.0230780567 L50.4637122,0.0230780567 L50.4637122,23.8832862 L59.1056417,23.8832862 C61.5938103,23.8832862 63.8481266,23.1785018 65.4293503,21.6047452 C68.1183025,18.9249796 67.8501956,15.4386638 67.8501956,11.852876 L67.8501956,11.852876 Z M63.1767781,11.852876 C63.1767781,15.4722382 63.0415735,17.1789022 62.1659531,18.2542562 C61.3587721,19.2232566 60.2847399,19.7274982 58.6687036,19.7274982 L55.1389436,19.7274982 L55.1389436,4.17893557 L58.6687036,4.17893557 C60.2847399,4.17893557 61.3587721,4.68136989 62.1659531,5.65384583 C63.0415735,6.72690596 63.1767781,8.2341394 63.1767781,11.852876 L63.1767781,11.852876 Z M46.5928014,35.0736412 L48.1815596,35.0736412 L43.0525767,21.1347036 L41.7940161,21.1347036 L36.6487779,35.0736412 L38.2404663,35.0736412 L39.3592178,31.920845 L45.4700035,31.920845 L46.5928014,35.0736412 Z M45.0371117,30.6304202 L39.8124112,30.6304202 L42.4456212,23.2699104 L45.0371117,30.6304202 Z M33.262385,5.28035668 L34.8546315,5.28035668 L32.9120252,0 L31.4157056,0 L31.7107417,0.837761262 L26.4837389,0.837761262 L26.7833796,0 L25.2703164,0 L23.3207336,5.28035668 L24.9129801,5.28035668 L26.0317315,2.12644829 L32.1436335,2.12644829 L33.262385,5.28035668 Z M25.4230319,40.9766189 L22.1428911,49.8565963 L23.659024,49.8565963 L26.0694046,43.1100184 L28.4484608,49.8565963 L29.9476408,49.8565963 L26.6815925,40.9766189 L25.4230319,40.9766189 Z M17.0173266,23.8832862 L21.6919302,23.8832862 L21.6919302,0.0230780567 L17.085208,0.0230780567 L10.8624494,12.9271178 L4.60718033,0.0230780567 L-9.99999997e-05,0.0230780567 L-9.99999997e-05,23.8832862 L4.67624768,23.8832862 L4.67624768,9.97847902 L9.28066765,19.0232699 L12.443673,19.0232699 L17.0173266,9.97847902 L17.0173266,23.8832862 Z M60.0822122,25.9403613 L50.4637122,25.9403613 L50.4637122,49.7999438 L60.4837795,49.7999438 C64.7556297,49.7999438 67.817127,47.3866881 67.817127,42.9278964 C67.817127,39.7456965 65.9666803,38.2402009 64.5212193,37.5671836 C65.7322001,36.9994773 67.4770924,35.2927438 67.4770924,32.645927 C67.4770924,28.5559671 64.7556297,25.9403613 60.0822122,25.9403613 L60.0822122,25.9403613 Z M55.1389436,39.779827 L60.0154471,39.779827 C62.1340007,39.779827 63.1425235,41.085336 63.1425235,42.6931536 C63.1425235,44.3039603 62.1340007,45.645268 60.0154471,45.645268 L55.1389436,45.645268 L55.1389436,39.779827 Z M59.7114112,30.0950371 C61.6953184,30.0950371 62.8059771,31.201046 62.8059771,32.8436893 C62.8059771,34.4838996 61.6953184,35.5916463 59.7114112,35.5916463 L55.1389436,35.5916463 L55.1389436,30.0950371 L59.7114112,30.0950371 Z M83.497647,25.9403613 L78.8247876,25.9403613 L78.8247876,49.7999438 L83.497647,49.7999438 L83.497647,25.9403613 Z" id="Fill-1-copy-2" sketch:type="MSShapeGroup"></path>
        </g>
    </g>
</svg>